PathFileType	4	(X/Y/Z)	Walk6.trc
DataRate	CameraRate	NumFrames	NumMarkers	Units	OrigDataRate	OrigDataStartFrame	OrigNumFrames
200.000000	200.000000	4	59	mm	200.000000	357	554
Frame#	Times		C7		CLAV		STRN		RBack		LASI		RASI		RACR1		RUA1		RElbow		RFA1		RWRR		RWRU		RCAR		LACR1		LFA1		LWRU		LCAR		RTH1		RTH3		RTH2		RTH4		RLFC		LTH1		LTH3		LTH2		LTH4		LLFC		LTB1		LTB3		LTB2		LTB4		LMMAL		LMT1		LToe		LFHD		RFHD		T10		LMT5		LPSI		RPSI		LLMAL		RBHD		RTB1		LUA1		LBHD		RTB2		RTB3		RToe		RTB4		LCAL		RElbowM		RCAL		RMT1		LElbow		LElbowM		LWRR		RLMAL		RMT5		RMMAL
			X1	Y1	Z1	X2	Y2	Z2	X3	Y3	Z3	X4	Y4	Z4	X5	Y5	Z5	X6	Y6	Z6	X7	Y7	Z7	X8	Y8	Z8	X9	Y9	Z9	X10	Y10	Z10	X11	Y11	Z11	X12	Y12	Z12	X13	Y13	Z13	X14	Y14	Z14	X15	Y15	Z15	X16	Y16	Z16	X17	Y17	Z17	X18	Y18	Z18	X19	Y19	Z19	X20	Y20	Z20	X21	Y21	Z21	X22	Y22	Z22	X23	Y23	Z23	X24	Y24	Z24	X25	Y25	Z25	X26	Y26	Z26	X27	Y27	Z27	X28	Y28	Z28	X29	Y29	Z29	X30	Y30	Z30	X31	Y31	Z31	X32	Y32	Z32	X33	Y33	Z33	X34	Y34	Z34	X35	Y35	Z35	X36	Y36	Z36	X37	Y37	Z37	X38	Y38	Z38	X39	Y39	Z39	X40	Y40	Z40	X41	Y41	Z41	X42	Y42	Z42	X43	Y43	Z43	X44	Y44	Z44	X45	Y45	Z45	X46	Y46	Z46	X47	Y47	Z47	X48	Y48	Z48	X49	Y49	Z49	X50	Y50	Z50	X51	Y51	Z51	X52	Y52	Z52	X53	Y53	Z53	X54	Y54	Z54	X55	Y55	Z55	X56	Y56	Z56	X57	Y57	Z57	X58	Y58	Z58	X59	Y59	Z59

357	1.785	-122.15	1392.6	-16.917	6.5825	1320.5	-28.827	90.665	1095.9	-35.358	-158.45	1283.7	75.815	17.405	910.78	-162.67	55.38	925.41	103.32	-39.346	1321.7	147.62	-80.898	1111.6	203.61	-114.7	1008.6	222.63	-72.606	862.09	233.92	-64.568	754.74	197.17	-115.76	757.84	250.92	-76.093	710.73	247.79	-61.752	1337.4	-195.3	36.762	920.01	-273.66	65.313	801.84	-273.76	128.98	794.2	-268.39	3.7145	741.08	163.64	66.23	565.77	125.75	91.08	683.73	108.25	35.374	653.29	144.84	96.246	468	113.3	-100.51	702.08	-176.5	-114.23	518.72	-144.49	-37.257	603.97	-132.87	-108.85	606.33	-161.29	-147.17	415.38	-129.83	-184	316.17	-54.686	-320.16	186.85	-60.972	-265.07	266.19	-130.97	-251.97	248.83	-61.688	-402.88	128.4	-30.498	-312.28	37.744	-59.23	-270.68	26.873	-88.662	29.441	1567.3	-54.832	39.15	1569.2	17.904	-147.93	1108.7	-19.508	-356.21	26.668	-133.99	-182.69	947.69	-52.319	-167.24	957.31	60.774	-421.84	125.43	-111.99	-126.44	1516.6	61.276	146.48	353.93	36.555	-66.832	1131.7	-252.19	-138.37	1524.2	-65.062	144.61	262.5	105.09	165.06	169.75	33.181	340.4	39.428	65.966	155.26	261.39	35.203	-479.81	126.55	-58.542	-129.4	989.43	139.26	100.88	22.434	32.17	301.07	44.435	36.644	-66.241	1011.1	-273.07	-85.874	990.05	-206.52	109.99	835.07	-228.38	141.9	57.1	80.863	257.87	22.292	114.12	159.59	77.713	3.1769
358	1.79	-115.69	1392.7	-16.03	13.038	1320.7	-27.874	97.394	1096.1	-34.376	-151.93	1283.8	76.72	24.227	910.44	-160.9	61.921	925.78	103.98	-32.854	1321.7	148.52	-73.734	1111.4	204.35	-107.31	1008.3	223.32	-64.965	861.9	234.37	-56.777	754.61	197.49	-107.89	757.56	251.33	-68.113	710.55	248.1	-55.055	1337.6	-194.38	41.919	919.68	-273.05	69.91	801.36	-273.3	133.55	793.51	-268.44	11.096	742.04	163.85	74.171	567.12	125.33	98.189	685.19	107.55	42.962	654.44	144.55	103.37	468.64	113.13	-92.713	701.71	-175.64	-105.29	518.19	-144.19	-29.042	603.99	-131.84	-100.46	605.87	-160.73	-137.96	415.2	-129.79	-176.18	316.37	-55.226	-314.47	189.4	-62.41	-258.06	268.27	-131.86	-245.28	250.25	-62.698	-398.28	132.49	-32.25	-311.57	38.028	-59.485	-270.84	26.754	-88.526	35.522	1567.6	-53.89	45.191	1569.6	18.848	-141.78	1108.8	-18.838	-355.17	27.913	-134.19	-176.48	947.48	-51.932	-160.99	957.68	61.333	-417.14	129.91	-113.73	-120.28	1516.5	62.162	151.59	353.79	36.071	-60.677	1131.8	-251.04	-132.17	1524.1	-64.175	149.1	262.4	104.72	167.39	169.35	32.605	341.67	36.873	64.96	158.98	261.12	34.67	-474.8	133.09	-60.587	-122.07	989.23	139.96	100.94	22.827	32.276	301.86	42.506	35.707	-60.695	1011.2	-271.91	-80.002	990.28	-205.19	115.05	834.44	-228.27	142.81	57.178	80.538	258.24	21.673	114.42	160.31	77.242	2.7233
359	1.795	-109.24	1392.9	-15.163	19.464	1320.9	-26.94	104.08	1096.5	-33.395	-145.42	1283.9	77.618	31.054	910.14	-159.08	68.413	926.21	104.66	-26.364	1321.8	149.4	-66.529	1111.4	205.06	-99.874	1008.1	224	-57.248	861.8	234.81	-48.902	754.56	197.8	-99.92	757.36	251.74	-60.037	710.45	248.4	-48.362	1337.8	-193.45	46.997	919.39	-272.43	74.354	800.91	-272.84	137.95	792.81	-268.48	18.282	742.94	164.11	81.952	568.43	124.96	105.11	686.62	106.94	50.378	655.54	144.34	110.35	469.25	112.96	-84.832	701.4	-174.78	-96.095	517.71	-143.91	-20.659	604.11	-130.83	-91.894	605.46	-160.18	-128.43	415.07	-129.79	-167.99	316.62	-55.792	-308.38	192.04	-63.866	-250.67	270.45	-132.77	-238.21	251.75	-63.735	-393.25	136.71	-33.998	-310.71	38.411	-59.772	-270.95	26.627	-88.402	41.623	1568	-52.956	51.248	1570	19.783	-135.68	1109.1	-18.187	-353.94	29.354	-134.39	-170.31	947.32	-51.552	-154.8	958.08	61.876	-412.02	134.52	-115.47	-114.11	1516.5	63.027	156.54	353.66	35.593	-54.521	1132	-249.9	-125.96	1524	-63.31	153.42	262.32	104.36	169.57	168.99	32.049	342.77	34.759	64.106	162.56	260.88	34.151	-469.29	139.81	-62.626	-114.69	989.12	140.64	100.97	23.168	32.373	302.49	40.944	34.876	-55.182	1011.4	-270.75	-74.168	990.61	-203.85	119.97	833.8	-228.16	143.58	57.293	80.232	258.51	21.226	114.69	160.89	76.839	2.2939
360	1.8	-102.83	1393.2	-14.312	25.856	1321.2	-26.027	110.71	1096.8	-32.42	-138.93	1284.1	78.509	37.881	909.9	-157.23	74.852	926.72	105.35	-19.88	1321.9	150.25	-59.287	1111.4	205.76	-92.407	1008	224.67	-49.458	861.78	235.22	-40.943	754.6	198.1	-91.859	757.25	252.16	-51.864	710.43	248.69	-41.686	1338.1	-192.54	51.999	919.15	-271.8	78.65	800.48	-272.39	142.2	792.08	-268.52	25.26	743.77	164.42	89.532	569.66	124.66	111.82	687.97	106.44	57.599	656.57	144.21	117.14	469.83	112.81	-76.881	701.15	-173.93	-86.674	517.3	-143.66	-12.126	604.34	-129.85	-83.184	605.1	-159.65	-118.59	415	-129.83	-159.46	316.93	-56.379	-301.88	194.76	-65.321	-242.91	272.72	-133.68	-230.76	253.32	-64.788	-387.79	141.02	-35.718	-309.68	38.907	-60.09	-271	26.494	-88.295	47.743	1568.4	-52.035	57.321	1570.4	20.707	-129.62	1109.4	-17.551	-352.49	31.003	-134.61	-164.18	947.21	-51.173	-148.65	958.5	62.403	-406.49	139.24	-117.18	-107.93	1516.5	63.871	161.32	353.53	35.14	-48.367	1132.3	-248.78	-119.75	1524.1	-62.468	157.53	262.23	104.02	171.59	168.66	31.526	343.71	33.05	63.4	165.98	260.65	33.66	-463.3	146.67	-64.635	-107.28	989.1	141.32	100.98	23.46	32.459	302.99	39.714	34.151	-49.702	1011.7	-269.59	-68.373	991.03	-202.51	124.75	833.15	-228.03	144.22	57.434	79.949	258.7	20.921	114.93	161.37	76.497	1.8956
